# vtk DataFile Version 3.0
MachLine results file. Generated by MachLine, USU AeroLab (c) 2023.
ASCII
DATASET POLYDATA
POINTS                 108 float
  0.340459000000E+02  0.766733700000E+00 -0.139514500000E+01
  0.341850700000E+02  0.932355600000E+00 -0.139304600000E+01
  0.386505400000E+02  0.766733700000E+00 -0.139514500000E+01
  0.386505400000E+02  0.932355600000E+00 -0.139304600000E+01
  0.341850700000E+02  0.932355600000E+00 -0.139304600000E+01
  0.343242400000E+02  0.109797800000E+01 -0.139094800000E+01
  0.386505400000E+02  0.932355600000E+00 -0.139304600000E+01
  0.386505400000E+02  0.109797800000E+01 -0.139094800000E+01
  0.343242400000E+02  0.109797800000E+01 -0.139094800000E+01
  0.344634100000E+02  0.126360000000E+01 -0.138884900000E+01
  0.386505400000E+02  0.109797800000E+01 -0.139094800000E+01
  0.386505400000E+02  0.126360000000E+01 -0.138884900000E+01
  0.344634100000E+02  0.126360000000E+01 -0.138884900000E+01
  0.346402900000E+02  0.147417300000E+01 -0.138785700000E+01
  0.386505400000E+02  0.126360000000E+01 -0.138884900000E+01
  0.386505400000E+02  0.147417300000E+01 -0.138785700000E+01
  0.346402900000E+02  0.147417300000E+01 -0.138785700000E+01
  0.348171900000E+02  0.168477900000E+01 -0.138686500000E+01
  0.386505400000E+02  0.147417300000E+01 -0.138785700000E+01
  0.386505400000E+02  0.168477900000E+01 -0.138686500000E+01
  0.349940900000E+02  0.189538400000E+01 -0.138587300000E+01
  0.351709900000E+02  0.210598900000E+01 -0.138488100000E+01
  0.386505400000E+02  0.189538400000E+01 -0.138587300000E+01
  0.386505400000E+02  0.210598900000E+01 -0.138488100000E+01
  0.348171900000E+02  0.168477900000E+01 -0.138686500000E+01
  0.349940900000E+02  0.189538400000E+01 -0.138587300000E+01
  0.386505400000E+02  0.168477900000E+01 -0.138686500000E+01
  0.386505400000E+02  0.189538400000E+01 -0.138587300000E+01
  0.353479000000E+02  0.231659500000E+01 -0.138388900000E+01
  0.355248000000E+02  0.252720000000E+01 -0.138289600000E+01
  0.386505400000E+02  0.231659500000E+01 -0.138388900000E+01
  0.386505400000E+02  0.252720000000E+01 -0.138289600000E+01
  0.351709900000E+02  0.210598900000E+01 -0.138488100000E+01
  0.353479000000E+02  0.231659500000E+01 -0.138388900000E+01
  0.386505400000E+02  0.210598900000E+01 -0.138488100000E+01
  0.386505400000E+02  0.231659500000E+01 -0.138388900000E+01
  0.355248000000E+02  0.252720000000E+01 -0.138289600000E+01
  0.359391500000E+02  0.281450300000E+01 -0.138871300000E+01
  0.386505400000E+02  0.252720000000E+01 -0.138289600000E+01
  0.386505400000E+02  0.281450300000E+01 -0.138871300000E+01
  0.367836000000E+02  0.340002900000E+01 -0.140056700000E+01
  0.372090200000E+02  0.369500500000E+01 -0.140653900000E+01
  0.386505400000E+02  0.340002900000E+01 -0.140056700000E+01
  0.386505400000E+02  0.369500500000E+01 -0.140653900000E+01
  0.359391500000E+02  0.281450300000E+01 -0.138871300000E+01
  0.363645700000E+02  0.310947900000E+01 -0.139468500000E+01
  0.386505400000E+02  0.281450300000E+01 -0.138871300000E+01
  0.386505400000E+02  0.310947900000E+01 -0.139468500000E+01
  0.363645700000E+02  0.310947900000E+01 -0.139468500000E+01
  0.367836000000E+02  0.340002900000E+01 -0.140056700000E+01
  0.386505400000E+02  0.310947900000E+01 -0.139468500000E+01
  0.386505400000E+02  0.340002900000E+01 -0.140056700000E+01
  0.375815900000E+02  0.457820000000E+01 -0.133739100000E+01
  0.374911200000E+02  0.457820000000E+01 -0.133332700000E+01
  0.386505400000E+02  0.457820000000E+01 -0.133739100000E+01
  0.386505400000E+02  0.457820000000E+01 -0.133332700000E+01
  0.372090200000E+02  0.369500500000E+01 -0.140653900000E+01
  0.376319400000E+02  0.398824700000E+01 -0.141247600000E+01
  0.386505400000E+02  0.369500500000E+01 -0.140653900000E+01
  0.386505400000E+02  0.398824700000E+01 -0.141247600000E+01
  0.376720200000E+02  0.457820000000E+01 -0.134244500000E+01
  0.375815900000E+02  0.457820000000E+01 -0.133739100000E+01
  0.386505400000E+02  0.457820000000E+01 -0.134244500000E+01
  0.386505400000E+02  0.457820000000E+01 -0.133739100000E+01
  0.382132700000E+02  0.457820000000E+01 -0.138999600000E+01
  0.381232500000E+02  0.457820000000E+01 -0.137999900000E+01
  0.386505400000E+02  0.457820000000E+01 -0.138999600000E+01
  0.386505400000E+02  0.457820000000E+01 -0.137999900000E+01
  0.381232500000E+02  0.457820000000E+01 -0.137999900000E+01
  0.380331500000E+02  0.457820000000E+01 -0.137084700000E+01
  0.386505400000E+02  0.457820000000E+01 -0.137999900000E+01
  0.386505400000E+02  0.457820000000E+01 -0.137084700000E+01
  0.380573500000E+02  0.428322400000E+01 -0.141844800000E+01
  0.384827700000E+02  0.457820000000E+01 -0.142442000000E+01
  0.386505400000E+02  0.428322400000E+01 -0.141844800000E+01
  0.386505400000E+02  0.457820000000E+01 -0.142442000000E+01
  0.383930400000E+02  0.457820000000E+01 -0.141215300000E+01
  0.383031900000E+02  0.457820000000E+01 -0.140075900000E+01
  0.386505400000E+02  0.457820000000E+01 -0.141215300000E+01
  0.386505400000E+02  0.457820000000E+01 -0.140075900000E+01
  0.377623900000E+02  0.457820000000E+01 -0.134838600000E+01
  0.376720200000E+02  0.457820000000E+01 -0.134244500000E+01
  0.386505400000E+02  0.457820000000E+01 -0.134838600000E+01
  0.386505400000E+02  0.457820000000E+01 -0.134244500000E+01
  0.376319400000E+02  0.398824700000E+01 -0.141247600000E+01
  0.380573500000E+02  0.428322400000E+01 -0.141844800000E+01
  0.386505400000E+02  0.398824700000E+01 -0.141247600000E+01
  0.386505400000E+02  0.428322400000E+01 -0.141844800000E+01
  0.378527100000E+02  0.457820000000E+01 -0.135510200000E+01
  0.377623900000E+02  0.457820000000E+01 -0.134838600000E+01
  0.386505400000E+02  0.457820000000E+01 -0.135510200000E+01
  0.386505400000E+02  0.457820000000E+01 -0.134838600000E+01
  0.383031900000E+02  0.457820000000E+01 -0.140075900000E+01
  0.382132700000E+02  0.457820000000E+01 -0.138999600000E+01
  0.386505400000E+02  0.457820000000E+01 -0.140075900000E+01
  0.386505400000E+02  0.457820000000E+01 -0.138999600000E+01
  0.384827700000E+02  0.457820000000E+01 -0.142442000000E+01
  0.383930400000E+02  0.457820000000E+01 -0.141215300000E+01
  0.386505400000E+02  0.457820000000E+01 -0.142442000000E+01
  0.386505400000E+02  0.457820000000E+01 -0.141215300000E+01
  0.380331500000E+02  0.457820000000E+01 -0.137084700000E+01
  0.379429600000E+02  0.457820000000E+01 -0.136256600000E+01
  0.386505400000E+02  0.457820000000E+01 -0.137084700000E+01
  0.386505400000E+02  0.457820000000E+01 -0.136256600000E+01
  0.379429600000E+02  0.457820000000E+01 -0.136256600000E+01
  0.378527100000E+02  0.457820000000E+01 -0.135510200000E+01
  0.386505400000E+02  0.457820000000E+01 -0.136256600000E+01
  0.386505400000E+02  0.457820000000E+01 -0.135510200000E+01
POLYGONS                  54                 216
3                   0                   2                   1
3                   2                   3                   1
3                   4                   6                   5
3                   6                   7                   5
3                   8                  10                   9
3                  10                  11                   9
3                  12                  14                  13
3                  14                  15                  13
3                  16                  18                  17
3                  18                  19                  17
3                  20                  22                  21
3                  22                  23                  21
3                  24                  26                  25
3                  26                  27                  25
3                  28                  30                  29
3                  30                  31                  29
3                  32                  34                  33
3                  34                  35                  33
3                  36                  38                  37
3                  38                  39                  37
3                  40                  42                  41
3                  42                  43                  41
3                  44                  46                  45
3                  46                  47                  45
3                  48                  50                  49
3                  50                  51                  49
3                  52                  55                  53
3                  52                  54                  55
3                  56                  58                  57
3                  58                  59                  57
3                  60                  63                  61
3                  60                  62                  63
3                  64                  67                  65
3                  64                  66                  67
3                  68                  71                  69
3                  68                  70                  71
3                  72                  74                  73
3                  74                  75                  73
3                  76                  79                  77
3                  76                  78                  79
3                  80                  83                  81
3                  80                  82                  83
3                  84                  86                  85
3                  86                  87                  85
3                  88                  91                  89
3                  88                  90                  91
3                  92                  95                  93
3                  92                  94                  95
3                  96                  99                  97
3                  96                  98                  99
3                 100                 103                 101
3                 100                 102                 103
3                 104                 107                 105
3                 104                 106                 107
POINT_DATA                 108
SCALARS mu float 1
LOOKUP_TABLE default
  0.000000000000E+00
  0.475953427391E-01
  0.000000000000E+00
  0.475953427391E-01
  0.475953427391E-01
  0.822812511836E-01
  0.475953427391E-01
  0.822812511836E-01
  0.822812511836E-01
  0.109724871637E+00
  0.822812511836E-01
  0.109724871637E+00
  0.109724871637E+00
  0.138761104461E+00
  0.109724871637E+00
  0.138761104461E+00
  0.138761104461E+00
  0.163532836676E+00
  0.138761104461E+00
  0.163532836676E+00
  0.185224121947E+00
  0.204086245867E+00
  0.185224121947E+00
  0.204086245867E+00
  0.163532836676E+00
  0.185224121947E+00
  0.163532836676E+00
  0.185224121947E+00
  0.219977216081E+00
  0.238104432583E+00
  0.219977216081E+00
  0.238104432583E+00
  0.204086245867E+00
  0.219977216081E+00
  0.204086245867E+00
  0.219977216081E+00
  0.238104432583E+00
  0.245127951286E+00
  0.238104432583E+00
  0.245127951286E+00
  0.239514505545E+00
  0.221544413397E+00
  0.239514505545E+00
  0.221544413397E+00
  0.245127951286E+00
  0.245749216088E+00
  0.245127951286E+00
  0.245749216088E+00
  0.245749216088E+00
  0.239514505545E+00
  0.245749216088E+00
  0.239514505545E+00
  0.392003563660E-02
  0.000000000000E+00
  0.392003563660E-02
  0.000000000000E+00
  0.221544413397E+00
  0.185656545682E+00
  0.221544413397E+00
  0.185656545682E+00
  0.862062838818E-02
  0.392003563660E-02
  0.862062838818E-02
  0.392003563660E-02
  0.472615019115E-01
  0.404626068645E-01
  0.472615019115E-01
  0.404626068645E-01
  0.404626068645E-01
  0.334427378003E-01
  0.404626068645E-01
  0.334427378003E-01
  0.129531169208E+00
  0.742277880622E-01
  0.129531169208E+00
  0.742277880622E-01
  0.588202901369E-01
  0.534493282079E-01
  0.588202901369E-01
  0.534493282079E-01
  0.140416086218E-01
  0.862062838818E-02
  0.140416086218E-01
  0.862062838818E-02
  0.185656545682E+00
  0.129531169208E+00
  0.185656545682E+00
  0.129531169208E+00
  0.200511267568E-01
  0.140416086218E-01
  0.200511267568E-01
  0.140416086218E-01
  0.534493282079E-01
  0.472615019115E-01
  0.534493282079E-01
  0.472615019115E-01
  0.742277880622E-01
  0.588202901369E-01
  0.742277880622E-01
  0.588202901369E-01
  0.334427378003E-01
  0.265467904546E-01
  0.334427378003E-01
  0.265467904546E-01
  0.265467904546E-01
  0.200511267568E-01
  0.265467904546E-01
  0.200511267568E-01
